<?xml version="1.0" standalone="no"?>
<!DOCTYPE svg PUBLIC "-//W3C//DTD SVG 20010904//EN"
 "http://www.w3.org/TR/2001/REC-SVG-20010904/DTD/svg10.dtd">
<svg version="1.0" xmlns="http://www.w3.org/2000/svg"
 width="1024.000000pt" height="1024.000000pt" viewBox="0 0 1024.000000 1024.000000"
 preserveAspectRatio="xMidYMid meet">

<g transform="translate(0.000000,1024.000000) scale(0.100000,-0.100000)"
fill="#6f21ff" stroke="none">
<path d="M817 10224 c-196 -35 -372 -129 -522 -279 -113 -114 -178 -213 -231
-354 -69 -182 -64 57 -64 -3316 l0 -3052 67 16 c50 11 125 15 278 15 179 0
224 -3 307 -21 219 -49 308 -89 680 -304 154 -89 286 -162 295 -163 10 -1 135
206 384 638 203 351 368 640 367 641 -2 1 -212 123 -468 271 -256 147 -501
291 -545 320 -450 298 -714 850 -665 1391 6 70 12 129 13 132 0 3 -9 28 -21
55 -44 97 -56 156 -56 271 0 122 15 188 66 289 64 126 168 230 291 290 65 32
196 66 253 66 36 0 57 9 124 55 84 57 203 121 299 160 l55 23 -55 15 c-30 9
-117 32 -194 52 -77 20 -143 40 -147 43 -3 4 38 171 92 372 87 325 100 365
116 362 26 -5 2738 -732 2740 -735 2 -4 -194 -728 -199 -733 -4 -4 -273 63
-327 82 -39 13 47 -38 660 -391 360 -207 671 -386 690 -398 22 -13 -10 26 -90
107 l-125 126 273 273 272 272 1010 -1010 1010 -1010 -272 -272 -273 -273
-149 148 c-123 122 -147 142 -141 117 4 -16 8 -121 10 -233 l4 -204 39 -76
c54 -104 74 -186 74 -302 0 -116 -20 -198 -73 -301 -93 -178 -257 -298 -459
-335 -41 -7 -95 -13 -120 -14 -39 0 -57 -9 -128 -59 -102 -74 -276 -161 -402
-201 -279 -91 -607 -96 -893 -14 -154 43 -255 95 -748 379 -265 153 -484 274
-488 269 -6 -6 -687 -1185 -737 -1275 -2 -3 122 -77 274 -165 346 -198 454
-270 565 -374 189 -177 325 -392 405 -640 57 -175 67 -244 67 -475 0 -217 -8
-280 -54 -432 l-19 -63 2698 0 c2981 0 2780 -4 2961 64 141 53 240 118 354
231 113 114 178 213 231 354 69 184 64 -180 64 4471 0 4651 5 4287 -64 4471
-53 141 -118 240 -231 354 -114 113 -213 178 -354 231 -184 69 182 64 -4480
63 -3582 -1 -4228 -3 -4294 -15z"/>
<path d="M2000 7034 c-380 -71 -703 -339 -837 -696 -45 -120 -64 -213 -70
-349 -24 -515 313 -974 818 -1115 116 -32 335 -44 457 -24 233 37 457 154 620
324 136 142 226 299 279 492 26 92 28 112 27 279 0 163 -3 189 -27 280 -106
390 -411 691 -808 795 -113 29 -337 36 -459 14z"/>
<path d="M4926 5334 c-154 -30 -333 -110 -457 -203 -82 -62 -193 -179 -249
-261 -62 -91 -127 -235 -158 -347 -24 -89 -26 -114 -26 -278 0 -162 3 -190 27
-277 106 -395 410 -694 813 -799 116 -31 365 -34 486 -7 583 130 958 680 863
1264 -73 450 -419 809 -870 905 -108 22 -323 24 -429 3z"/>
</g>
</svg>
