<?xml version="1.0" standalone="no"?>
<!DOCTYPE svg PUBLIC "-//W3C//DTD SVG 20010904//EN"
 "http://www.w3.org/TR/2001/REC-SVG-20010904/DTD/svg10.dtd">
<svg version="1.0" xmlns="http://www.w3.org/2000/svg"
 width="1024.000000pt" height="1024.000000pt" viewBox="0 0 1024.000000 1024.000000"
 preserveAspectRatio="xMidYMid meet">

<g transform="translate(0.000000,1024.000000) scale(0.100000,-0.100000)"
fill="#CCCCCC" stroke="none">
<path d="M818 10224 c-382 -69 -687 -357 -791 -748 l-22 -81 0 -4275 0 -4275
22 -81 c50 -189 135 -338 267 -469 133 -132 277 -215 464 -268 73 -20 102 -21
595 -25 l517 -3 0 163 c1 1134 313 2242 863 3063 344 514 745 894 1214 1150
68 37 123 69 123 70 0 2 -35 22 -77 46 -413 225 -761 592 -974 1024 -317 646
-317 1404 1 2060 116 239 249 424 450 625 306 307 660 509 1074 615 212 54
342 69 581 69 239 0 369 -15 581 -69 829 -211 1480 -863 1690 -1691 111 -441
95 -886 -47 -1319 -182 -551 -585 -1037 -1091 -1314 -43 -24 -78 -44 -78 -46
0 -1 55 -33 123 -70 1098 -600 1870 -1945 2042 -3555 20 -197 35 -461 35 -658
l0 -163 513 3 c487 4 516 5 589 25 187 53 331 136 464 268 132 131 217 280
267 469 l22 81 0 4275 0 4275 -22 81 c-50 189 -135 338 -267 469 -132 132
-275 214 -464 268 l-77 22 -4255 2 c-3592 1 -4267 -1 -4332 -13z"/>
</g>
</svg>
