<?xml version="1.0" standalone="no"?>
<!DOCTYPE svg PUBLIC "-//W3C//DTD SVG 20010904//EN"
 "http://www.w3.org/TR/2001/REC-SVG-20010904/DTD/svg10.dtd">
<svg version="1.0" xmlns="http://www.w3.org/2000/svg"
 width="700.000000pt" height="700.000000pt" viewBox="0 0 700.000000 700.000000"
 preserveAspectRatio="xMidYMid meet">
<metadata>
Created by potrace 1.11, written by Peter Selinger 2001-2013
</metadata>
<g transform="translate(0.000000,700.000000) scale(0.100000,-0.100000)"
fill="#000000" stroke="none">
<path d="M590 6989 c-210 -18 -424 -175 -524 -384 -64 -132 -59 42 -63 -2282
l-4 -2121 43 10 c63 14 292 15 374 2 39 -7 106 -24 149 -39 80 -27 113 -43
387 -196 l158 -88 30 44 c30 44 180 294 180 301 0 1 14 23 30 47 17 25 30 48
30 51 0 4 27 52 60 107 33 55 60 101 60 103 0 2 27 50 60 107 33 57 60 107 60
110 0 4 -96 63 -212 131 -117 67 -221 128 -230 133 -9 6 -62 36 -118 68 -233
135 -362 263 -463 459 -63 123 -99 237 -113 358 -8 72 -8 220 0 263 3 16 -6
57 -20 98 -43 123 -38 245 15 353 66 135 182 218 346 247 39 7 85 25 130 52
38 23 104 58 145 78 l75 36 -60 17 c-121 33 -198 56 -202 60 -5 5 70 305 103
414 26 88 31 91 88 72 17 -6 150 -42 296 -80 146 -39 288 -76 315 -85 28 -8
95 -26 150 -41 194 -51 251 -66 395 -105 162 -44 242 -65 410 -109 144 -39
250 -70 250 -75 0 -2 -18 -71 -40 -152 -23 -81 -43 -155 -45 -164 -2 -9 -13
-53 -25 -98 -20 -73 -24 -80 -44 -76 -35 8 -99 23 -141 34 -51 13 -54 8 -13
-17 33 -20 721 -417 785 -453 19 -11 45 -27 59 -35 42 -28 27 -4 -46 70 l-70
72 187 186 186 187 690 -691 690 -690 -186 -186 -186 -186 -94 92 c-52 51 -96
92 -99 92 -2 0 -3 -68 -1 -152 4 -142 6 -155 33 -207 97 -194 41 -430 -131
-557 -58 -42 -160 -80 -241 -88 -45 -4 -72 -15 -127 -51 -113 -73 -257 -133
-386 -161 -50 -11 -317 -14 -360 -4 -22 5 -54 11 -70 14 -96 17 -193 63 -500
236 -265 150 -397 222 -400 218 -3 -3 -106 -181 -139 -240 -12 -20 -84 -145
-161 -278 -77 -132 -152 -262 -167 -288 -15 -26 -27 -52 -28 -58 0 -5 100 -70
223 -144 122 -73 249 -154 282 -181 155 -122 263 -277 331 -475 44 -131 49
-164 48 -354 -1 -145 -8 -198 -40 -303 -6 -18 57 -18 1873 -15 l1878 4 85 29
c104 36 209 105 285 186 113 123 164 234 173 384 10 143 9 5724 -1 5819 -14
140 -76 258 -201 381 -64 63 -99 89 -166 122 -81 39 -98 45 -180 60 -45 8
-5751 11 -5850 2z"/>
<path d="M1400 4813 c-146 -19 -314 -103 -431 -215 -91 -88 -184 -255 -204
-370 -16 -89 -21 -220 -10 -283 51 -285 244 -512 511 -599 77 -25 90 -27 211
-33 131 -6 214 10 331 63 162 74 300 207 372 359 53 114 69 188 69 325 0 179
-36 299 -129 435 -100 146 -292 273 -471 311 -29 6 -215 11 -249 7z"/>
<path d="M3415 3652 c-22 -2 -71 -12 -110 -24 -211 -62 -375 -199 -470 -393
-64 -130 -78 -201 -72 -360 3 -71 7 -137 10 -145 40 -136 127 -289 209 -366
110 -103 247 -176 378 -202 19 -4 94 -7 165 -7 137 1 197 14 308 67 77 36 87
42 87 50 0 5 7 8 15 8 24 0 179 161 217 226 45 77 83 173 98 249 13 61 17 220
7 265 -67 310 -258 524 -543 609 -68 20 -206 31 -299 23z"/>
</g>
</svg>
